<svg width="22" height="22" viewBox="0 0 22 22" fill="none" xmlns="http://www.w3.org/2000/svg">
<g clip-path="url(#clip0_18_119)">
<path d="M8.25 20.1667C8.75626 20.1667 9.16667 19.7563 9.16667 19.25C9.16667 18.7438 8.75626 18.3334 8.25 18.3334C7.74374 18.3334 7.33334 18.7438 7.33334 19.25C7.33334 19.7563 7.74374 20.1667 8.25 20.1667Z" stroke="white" stroke-width="2" stroke-linecap="round" stroke-linejoin="round"/>
<path d="M18.3333 20.1667C18.8396 20.1667 19.25 19.7563 19.25 19.25C19.25 18.7438 18.8396 18.3334 18.3333 18.3334C17.8271 18.3334 17.4167 18.7438 17.4167 19.25C17.4167 19.7563 17.8271 20.1667 18.3333 20.1667Z" stroke="white" stroke-width="2" stroke-linecap="round" stroke-linejoin="round"/>
<path d="M0.916664 0.916626H4.58333L7.04 13.1908C7.12382 13.6128 7.35341 13.9919 7.68858 14.2617C8.02375 14.5315 8.44314 14.6749 8.87333 14.6666H17.7833C18.2135 14.6749 18.6329 14.5315 18.9681 14.2617C19.3032 13.9919 19.5328 13.6128 19.6167 13.1908L21.0833 5.49996H5.5" fill="white"/>
<path d="M0.916664 0.916626H4.58333L7.04 13.1908C7.12382 13.6128 7.35341 13.9919 7.68858 14.2617C8.02375 14.5315 8.44314 14.6749 8.87333 14.6666H17.7833C18.2135 14.6749 18.6329 14.5315 18.9681 14.2617C19.3033 13.9919 19.5328 13.6128 19.6167 13.1908L21.0833 5.49996H5.5" stroke="white" stroke-width="2" stroke-linecap="round" stroke-linejoin="round"/>
</g>
<defs>
<clipPath id="clip0_18_119">
<rect width="22" height="22" fill="white"/>
</clipPath>
</defs>
</svg>
