<svg width="23" height="21" viewBox="0 0 23 21" fill="none" xmlns="http://www.w3.org/2000/svg">
<path d="M19.5349 3.34542C19.0707 2.86826 18.5194 2.48975 17.9128 2.2315C17.3061 1.97325 16.6558 1.84033 15.9991 1.84033C15.3424 1.84033 14.6921 1.97325 14.0854 2.2315C13.4787 2.48975 12.9275 2.86826 12.4633 3.34542L11.4998 4.33522L10.5363 3.34542C9.5985 2.38205 8.32662 1.84083 7.00043 1.84083C5.67423 1.84083 4.40235 2.38205 3.46459 3.34542C2.52683 4.30879 2 5.6154 2 6.97781C2 8.34022 2.52683 9.64683 3.46459 10.6102L4.42808 11.6L11.4998 18.8648L18.5714 11.6L19.5349 10.6102C19.9994 10.1333 20.3678 9.567 20.6192 8.94374C20.8706 8.32048 21 7.65245 21 6.97781C21 6.30317 20.8706 5.63514 20.6192 5.01188C20.3678 4.38862 19.9994 3.82235 19.5349 3.34542Z" fill="white" stroke="white" stroke-width="2" stroke-linecap="round" stroke-linejoin="round"/>
</svg>
